<?xml version="1.0" encoding="utf-8"?>
<!-- Generator: Adobe Illustrator 30.5.1, SVG Export Plug-In . SVG Version: 9.03 Build 0)  -->
<svg version="1.2" baseProfile="tiny" id="Layer_1" xmlns="http://www.w3.org/2000/svg" xmlns:xlink="http://www.w3.org/1999/xlink"
	 x="0px" y="0px" viewBox="0 0 121.03 50.511" style="overflow:visible;" xml:space="preserve">
<g>
	<g id="Layer_1_00000083778553700417180410000011801280111588139671_">
		<g>
			<g>
				<path style="fill:#212529;" d="M35.32,43.491c-0.11-0.49-0.33-0.93-0.46-1.4c0.15-0.01,0.28,0,0.42,0.02
					c1.08,0.26,2.21,0.39,3.31,0.51c1.63,0.17,3.29,0.28,4.93,0.26c-0.1,0.76-0.23,1.5-0.51,2.23c-0.5,1.25-1.52,2.4-2.58,3.21
					l-0.87,0.58c-1.87,1.03-3.77,1.47-5.89,1.61c0.04-0.38,0.5-0.84,0.7-1.18c1.05-1.75,1.42-3.83,0.95-5.83L35.32,43.491z"/>
				<path style="fill:#212529;" d="M84.48,36.111c2.31-0.84,4.55-1.73,6.71-2.92c1.61-0.89,3.13-1.94,4.6-3.03
					c2.1,2.34,3.28,5.25,3.12,8.41c-0.17,3.28-1.96,6.15-4.37,8.28c-1.91,1.69-4.22,2.7-6.61,3.49l1.03-1.71
					c1.08-2.16,1.59-4.82,0.81-7.17c-0.87-2.62-3.08-3.98-5.29-5.34V36.111z"/>
				<path style="fill:#212529;" d="M2.99,37.401c1.34-0.57,2.66-1.21,3.93-1.92c1.14-0.64,2.23-1.34,3.29-2.09
					c0.58-0.41,1.14-0.82,1.7-1.25c0.37-0.29,0.84-0.76,1.27-0.91c0.54,0.29,1.25,0.46,1.83,0.65c1.81,0.57,3.65,1.05,5.51,1.46
					c8.94,1.96,18,2.41,27.11,1.72c5.76-0.44,11.53-1.34,17.07-3.02c8.3-2.53,15.84-6.59,22.23-12.49c1.51,0.56,2.73,0.68,4.22,0
					c1.88-0.86,2.91-2.38,3.6-4.27c0.74-2.03,1.28-4.14,2.2-6.1c1.14-2.42,3.03-4.39,5.47-5.52c1.69-0.79,3.45-1.2,5.31-1.24
					c0.49,0,1.05-0.03,1.53,0.05c4.21,0.47,8.4,2.4,11.77,4.92c-0.3,0.15-0.56,0.16-0.67,0.53c-0.18,0.61,0.04,1.29-0.18,1.94
					c-0.29,0.87-0.75,1.49-1.58,1.92c-0.88,0.46-2.08,0.39-3.05,0.44c-1.34,0.08-2.74,0.1-4.07,0.28l6.39,0.84
					c-0.42,0.38-0.84,0.79-1.3,1.11c-2.25,1.54-5.2,2.26-7.91,2.14c-0.82-0.04-1.66-0.21-2.46-0.42
					c-2.43,4.67-5.78,9.25-10.05,12.42c-2.78,2.06-5.83,3.5-9.12,4.53l-3.19,0.79c-0.26-0.4-0.52-0.83-0.85-1.19
					c-1.2-1.35-2.92-2.16-4.67-2.53l-0.82-0.15c2.29,0.85,4.37,1.95,5.44,4.3c0.84,1.85,0.7,3.91-0.01,5.78
					c-1.51,3.96-4.9,6.51-8.66,8.18c-2.82,1.25-5.85,1.79-8.89,2.17c2.77-2.13,4.7-5.15,5.15-8.63c0.17-1.34,0.09-2.67-0.11-4
					c-0.1-0.68-0.27-1.36-0.33-2.04c-0.09-1.07,0.03-2.18,0.21-3.23c-0.93,1.91-1.12,4.48-0.91,6.58c-1.97,0.28-3.93,0.64-5.92,0.85
					c-9.35,1.03-18.9,1.05-28.25,0.14c-1.55-0.15-3.09-0.31-4.63-0.56c-0.51-0.08-1.1-0.13-1.59-0.29
					c-0.25-0.36-0.14-1.08-0.21-1.52c-0.08-0.46-0.19-0.91-0.32-1.35c-0.11-0.38-0.26-0.61-0.26-1.02
					c-0.17,0.53,0.12,1.38,0.14,1.97c0.02,0.55-0.05,1.11-0.13,1.65c-0.06,0.43-0.43,1.38-0.31,1.74l-0.03,0.03
					c-0.26,0.28-0.39,0.92-0.55,1.28c-0.3,0.65-0.63,1.3-1.03,1.9c-2.82,4.27-7.66,6.03-12.58,6.34l-2.34,0.07
					c0.17-0.3,0.62-0.52,0.9-0.73c0.38-0.28,0.75-0.6,1.1-0.92c0.99-0.91,1.87-2.07,2.48-3.27c0.52-1.02,0.86-2.18,0.94-3.32
					c0.08-1.13-0.1-2.24-0.05-3.36c0.05-1.18,0.6-2.54,1.61-3.22c0.42-0.29,0.95-0.47,1.44-0.61l1.77-0.37
					c-0.82-0.06-1.64,0.07-2.45,0.2c-1.6,0.27-3.16,0.71-4.73,1.15c-2.1,0.58-4.19,1.2-6.31,1.72c-2.68,0.65-5.32,0.96-8.08,0.92
					c0.36-0.27,0.87-0.38,1.3-0.52c0.57-0.19,1.13-0.4,1.68-0.64L2.99,37.401z M111.12,8.391l3.29-0.73l-1.81-0.14l0.03-0.12
					c0.13-0.69,0.03-1.39-0.39-1.97c-0.41-0.57-1.04-0.78-1.7-0.9c-0.54,0-1.07,0.16-1.51,0.48c-0.75,0.55-1.16,1.56-0.87,2.47
					c0.06,0.2,0.27,0.5,0.24,0.69c-0.19,0.03-0.36,0.06-0.54,0.12c0.95,0.4,2.27,0.21,3.26,0.09V8.391z"/>
				<path style="fill:#212529;" d="M108.16,7.481c-0.29-0.91,0.12-1.92,0.87-2.47c0.44-0.32,0.97-0.47,1.51-0.48
					c0.66,0.12,1.29,0.33,1.7,0.9c0.42,0.58,0.52,1.27,0.39,1.97l-0.03,0.12l1.81,0.14l-3.29,0.73c-0.99,0.12-2.32,0.3-3.26-0.09
					c0.18-0.05,0.36-0.09,0.54-0.12c0.03-0.2-0.17-0.5-0.24-0.69V7.481z M109.94,7.161c0.11,0.43,0.33,0.63,0.69,0.86l0.17-0.02
					c0.3-0.05,0.47-0.18,0.64-0.43c0.21-0.31,0.29-0.73,0.21-1.09c-0.1-0.45-0.35-0.67-0.72-0.89h-0.12
					c-0.32,0.05-0.54,0.17-0.72,0.44c-0.22,0.32-0.23,0.77-0.13,1.13H109.94z"/>
				<path style="fill:#E9D175;" d="M110.79,5.591h0.12c0.37,0.22,0.62,0.44,0.72,0.88c0.08,0.36,0,0.78-0.21,1.09
					c-0.17,0.25-0.34,0.37-0.64,0.43l-0.17,0.02c-0.36-0.23-0.58-0.43-0.69-0.86c-0.09-0.37-0.08-0.81,0.13-1.13
					c0.18-0.27,0.4-0.39,0.72-0.43H110.79z"/>
				<path style="fill:#6664E4;" d="M44.76,33.231c-9.24,0.78-18.58,0.41-27.64-1.63c-0.95-0.21-1.89-0.46-2.83-0.72
					c-0.27-0.08-0.67-0.13-0.91-0.26c-0.13-0.32,0.02-0.87,0.07-1.22c0.34-2.33,0.98-4.49,1.89-6.66
					c3.78-8.96,11.33-15.23,20.2-18.83c6.34-2.58,13.3-3.87,20.15-3.9c1.08,0,2.19-0.04,3.27,0.03c2.92,0.18,5.8,0.49,8.67,1.1
					c8.31,1.77,16.21,5.82,21.88,12.24l1.35,1.65c-4.11,3.83-8.91,6.92-13.91,9.44c-10.11,5.09-20.96,7.82-32.21,8.76H44.76z
					 M85.28,13.471l-0.15-0.18c-1.66-1.81-3.71-3.34-5.79-4.61c-6.33-3.86-13.57-5.52-20.93-5.81c-1.3-0.08-2.64-0.03-3.94,0
					c-3.89,0.13-7.77,0.65-11.55,1.59c-9.32,2.32-18.39,7.53-23.44,15.93c-1.07,1.78-1.87,3.68-2.52,5.65
					c-0.05,0.16-0.23,0.53-0.23,0.67c0,0.1,0.06,0.25,0.09,0.35v-0.15l0.02-0.06c0-0.11,0.03-0.19,0.07-0.29
					c0.29-0.66,0.69-1.29,1.05-1.91c2.24-3.82,5.39-7.07,8.93-9.72c0.62-0.46,1.34-1.12,2.05-1.39c0.29,0.19,0.64,0.29,0.96,0.42
					c0.66,0.28,1.33,0.56,1.98,0.85c0.97,0.44,1.94,0.87,2.9,1.32c0.77,0.37,1.56,0.84,2.37,1.08l-0.02,0.03
					c-0.15,0.24-0.11,0.67-0.12,0.96c-0.04,1.35,0.04,2.75,0.31,4.08c0.81,3.96,3.84,6.92,7.08,9.08l-2.73-3.58
					c-1.86-2.99-2.93-6.89-2.13-10.37l1.62-0.75c4.27-1.84,8.78-2.39,13.39-2.35c2.56,3.92,6.15,7.33,10.28,9.55
					c1.21,0.65,2.49,1.17,3.76,1.68c-1.13-0.9-2.4-1.65-3.54-2.55c-3.33-2.62-6.41-6.24-8.16-10.13c1.21-3.08,3.06-5.91,5.89-7.74
					c2.31,0.35,4.61,0.73,6.87,1.31c4.06,1.04,7.99,2.59,11.66,4.62c1.36,0.75,2.64,1.59,3.95,2.41L85.28,13.471z"/>
				<path style="fill:#6664E4;" d="M54.39,12.051c-1.34,0.09-2.68,0.11-4.02,0.23c-3.13,0.28-6.31,0.91-9.27,1.95
					c-0.86,0.3-1.69,0.68-2.53,1.05c-0.46-0.26-0.92-0.51-1.38-0.74c-0.25-0.13-0.6-0.25-0.81-0.43c-0.97-0.39-1.91-0.86-2.89-1.25
					c-0.57-0.23-1.15-0.43-1.72-0.63c-0.3-0.11-0.65-0.19-0.91-0.37c0.13-0.2,0.37-0.33,0.57-0.46c0.4-0.27,0.81-0.52,1.23-0.76
					c4.02-2.3,8.28-3.91,12.8-4.91c2.93-0.64,6.07-1.13,9.09-1.04l4.51,0.27c-1.35,1.42-2.48,3.09-3.43,4.81
					c-0.41,0.75-0.76,1.58-1.24,2.29V12.051z"/>
			</g>
		</g>
	</g>
</g>
</svg>
